<?xml version="1.0" encoding="utf-8"?>
<!-- Generator: Adobe Illustrator 21.1.0, SVG Export Plug-In . SVG Version: 6.00 Build 0)  -->
<svg version="1.1" id="Capa_1" xmlns="http://www.w3.org/2000/svg" xmlns:xlink="http://www.w3.org/1999/xlink" x="0px" y="0px"
	 viewBox="0 0 144 28.4" style="enable-background:new 0 0 144 28.4;" xml:space="preserve">
<style type="text/css">
	.st0{fill:#5C5B5F;}
	.st1{fill:none;}
	.st2{fill:url(#SVGID_1_);}
	.st3{fill:url(#SVGID_2_);}
	.st4{fill:#7D7E7F;}
</style>
<g>
	<g>
		<path class="st0" d="M2.8,18c-0.8,0-1.5-0.6-1.5-1.5V3.2c0-0.8,0.6-1.5,1.5-1.5h8.4c2.2,0,2.1,3,0,3H4.4v3.5h5.9
			c2.1,0,2.1,3.1,0,3.1H4.4v3.5h7.1c2.1,0,2.3,3.1,0,3.1H2.8z"/>
		<path class="st0" d="M21.1,16.9L14.9,4c-0.9-1.9,1.9-3.4,2.9-1.4l2.1,4.7l2.7,6.2l2.6-6.2l2.1-4.7c0.9-1.8,3.7-0.7,2.9,1.3
			l-6,13.1C23.6,18.4,21.9,18.7,21.1,16.9"/>
		<path class="st0" d="M54.5,2.7c0-0.8,0.7-1.4,1.5-1.4c0.8,0,1.4,0.7,1.4,1.4v11.8h6.4c2.3,0,2.4,3.1,0,3.1h-7.8
			c-0.8,0-1.5-0.6-1.5-1.4V2.7z"/>
		<path class="st0" d="M78.1,2.8c0-2.1,3.1-2.3,3.1,0v8.6c0,8.8-14.3,8.8-14.3,0V2.8c0-2.1,3.1-2.2,3.1,0v8.6c0,4.7,8.1,4.9,8.1,0
			V2.8z"/>
		<path class="st0" d="M89,4.2h-4.1c-2.1,0-2.1-3,0-3H96c2.1,0,2.1,3,0,3h-3.9v11.9c0,2.1-3.1,2.1-3.1,0V4.2z"/>
		<path class="st0" d="M100,2.7c0-1.9,3.1-2,3.1,0v13.5c0,2-3.1,2-3.1,0V2.7z"/>
		<path class="st0" d="M128.7,3.1c0-0.8,0.2-1.7,1.4-1.7c0.8,0,1,0.2,1.7,0.8l7.8,9.7V2.8c0-0.8,0.7-1.6,1.5-1.6
			c0.8,0,1.7,0.8,1.7,1.6V16c0,1-0.6,1.4-1.2,1.6c-0.8,0-1.2-0.2-1.9-0.8L131.8,7V16c0,1-0.6,1.6-1.5,1.6c-0.8,0-1.6-0.6-1.6-1.6
			V3.1z"/>
		<path class="st1" d="M51.9,10.2C51.9,10.2,51.9,10.2,51.9,10.2L51.9,10.2C51.9,10.2,51.9,10.2,51.9,10.2z"/>
		<path class="st1" d="M31.6,10.2C31.6,10.2,31.6,10.2,31.6,10.2L31.6,10.2C31.6,10.2,31.6,10.2,31.6,10.2z"/>
		<polygon class="st1" points="51.9,10.2 51.9,10.2 51.9,10.1 51.9,10.1 		"/>
		<linearGradient id="SVGID_1_" gradientUnits="userSpaceOnUse" x1="106.5219" y1="10.1917" x2="126.8982" y2="10.1917">
			<stop  offset="0" style="stop-color:#FFFFFF;stop-opacity:0"/>
			<stop  offset="4.472238e-02" style="stop-color:#FDF0F2;stop-opacity:4.472238e-02"/>
			<stop  offset="0.2348" style="stop-color:#F4B6BD;stop-opacity:0.2348"/>
			<stop  offset="0.4185" style="stop-color:#ED8691;stop-opacity:0.4185"/>
			<stop  offset="0.5913" style="stop-color:#E7606F;stop-opacity:0.5913"/>
			<stop  offset="0.7508" style="stop-color:#E34557;stop-opacity:0.7508"/>
			<stop  offset="0.8919" style="stop-color:#E13548;stop-opacity:0.8919"/>
			<stop  offset="1" style="stop-color:#E02F43"/>
		</linearGradient>
		<path class="st2" d="M116.7,0c-5.6,0-10.2,4.6-10.2,10.2c0,5.6,4.6,10.2,10.2,10.2c5.6,0,10.2-4.6,10.2-10.2
			C126.9,4.6,122.3,0,116.7,0z M116.7,17.1c-3.8,0-6.9-3.1-6.9-6.9c0-3.8,3.1-6.9,6.9-6.9c3.8,0,6.9,3.1,6.9,6.9
			C123.7,14,120.5,17.1,116.7,17.1z"/>
		<linearGradient id="SVGID_2_" gradientUnits="userSpaceOnUse" x1="31.551" y1="10.1883" x2="51.9274" y2="10.1883">
			<stop  offset="0" style="stop-color:#FFFFFF;stop-opacity:0"/>
			<stop  offset="4.472238e-02" style="stop-color:#FDF0F2;stop-opacity:4.472238e-02"/>
			<stop  offset="0.2348" style="stop-color:#F4B6BD;stop-opacity:0.2348"/>
			<stop  offset="0.4185" style="stop-color:#ED8691;stop-opacity:0.4185"/>
			<stop  offset="0.5913" style="stop-color:#E7606F;stop-opacity:0.5913"/>
			<stop  offset="0.7508" style="stop-color:#E34557;stop-opacity:0.7508"/>
			<stop  offset="0.8919" style="stop-color:#E13548;stop-opacity:0.8919"/>
			<stop  offset="1" style="stop-color:#E02F43"/>
		</linearGradient>
		<path class="st3" d="M41.7,0c-5.6,0-10.2,4.6-10.2,10.2c0,5.6,4.6,10.2,10.2,10.2c5.6,0,10.2-4.6,10.2-10.2
			C51.9,4.6,47.4,0,41.7,0z M41.7,17.1c-3.8,0-6.9-3.1-6.9-6.9c0-3.8,3.1-6.9,6.9-6.9c3.8,0,6.9,3.1,6.9,6.9
			C48.7,14,45.6,17.1,41.7,17.1z"/>
	</g>
	<g>
		<path class="st4" d="M90,24.3h0.6v1.4h1.6v-1.4h0.6v3.4h-0.6v-1.4h-1.6v1.4H90V24.3z"/>
		<path class="st4" d="M95.1,26.7v-1.6h0.6v1.5c0,0.4,0.2,0.6,0.5,0.6c0.3,0,0.6-0.2,0.6-0.6v-1.4h0.6v2.6h-0.6v-0.4
			c-0.2,0.2-0.4,0.5-0.8,0.5C95.4,27.7,95.1,27.3,95.1,26.7z"/>
		<path class="st4" d="M99.6,25.1h0.6v0.4c0.2-0.2,0.4-0.4,0.8-0.4c0.4,0,0.6,0.2,0.8,0.5c0.2-0.3,0.5-0.5,0.9-0.5
			c0.6,0,0.9,0.4,0.9,1v1.6h-0.6v-1.5c0-0.4-0.2-0.6-0.5-0.6c-0.3,0-0.5,0.2-0.5,0.6v1.4h-0.6v-1.5c0-0.4-0.2-0.6-0.5-0.6
			c-0.3,0-0.5,0.2-0.5,0.6v1.4h-0.6V25.1z"/>
		<path class="st4" d="M107.2,27.7v-0.3c-0.2,0.2-0.4,0.4-0.8,0.4c-0.5,0-0.9-0.3-0.9-0.8v0c0-0.6,0.4-0.8,1-0.8
			c0.3,0,0.5,0,0.7,0.1v0c0-0.4-0.2-0.5-0.6-0.5c-0.3,0-0.5,0.1-0.7,0.2l-0.2-0.5c0.3-0.1,0.6-0.2,1-0.2c0.8,0,1.1,0.4,1.1,1.1v1.5
			H107.2z M107.2,26.6c-0.2-0.1-0.4-0.1-0.6-0.1c-0.4,0-0.6,0.2-0.6,0.4v0c0,0.2,0.2,0.4,0.5,0.4c0.4,0,0.7-0.2,0.7-0.5V26.6z"/>
		<path class="st4" d="M110,25.1h0.6v0.4c0.2-0.2,0.4-0.5,0.8-0.5c0.6,0,0.9,0.4,0.9,1v1.6h-0.6v-1.5c0-0.4-0.2-0.6-0.5-0.6
			c-0.3,0-0.6,0.2-0.6,0.6v1.4H110V25.1z"/>
		<path class="st4" d="M117.3,26L117.3,26c0-1,0.7-1.8,1.8-1.8c0.6,0,1,0.2,1.3,0.5l-0.4,0.4c-0.3-0.3-0.6-0.4-1-0.4
			c-0.7,0-1.1,0.5-1.1,1.2v0c0,0.7,0.5,1.2,1.1,1.2c0.4,0,0.7-0.2,1-0.4l0.4,0.4c-0.4,0.4-0.7,0.6-1.4,0.6
			C118,27.7,117.3,26.9,117.3,26z"/>
		<path class="st4" d="M124,27.7v-0.3c-0.2,0.2-0.4,0.4-0.8,0.4c-0.5,0-0.9-0.3-0.9-0.8v0c0-0.6,0.4-0.8,1-0.8c0.3,0,0.5,0,0.7,0.1
			v0c0-0.4-0.2-0.5-0.6-0.5c-0.3,0-0.5,0.1-0.7,0.2l-0.2-0.5c0.3-0.1,0.6-0.2,1-0.2c0.8,0,1.1,0.4,1.1,1.1v1.5H124z M124,26.6
			c-0.2-0.1-0.4-0.1-0.6-0.1c-0.4,0-0.6,0.2-0.6,0.4v0c0,0.2,0.2,0.4,0.5,0.4c0.4,0,0.7-0.2,0.7-0.5V26.6z"/>
		<path class="st4" d="M126.7,25.1h0.6v0.4c0.2-0.3,0.5-0.5,0.9-0.5c0.6,0,1.2,0.5,1.2,1.3v0c0,0.9-0.6,1.3-1.2,1.3
			c-0.4,0-0.7-0.2-0.9-0.5v1.2h-0.6V25.1z M128.8,26.4L128.8,26.4c0-0.5-0.3-0.8-0.7-0.8s-0.7,0.3-0.7,0.8v0c0,0.5,0.4,0.8,0.7,0.8
			C128.4,27.2,128.8,26.9,128.8,26.4z"/>
		<path class="st4" d="M131.4,24.1h0.6v0.6h-0.6V24.1z M131.5,25.1h0.6v2.6h-0.6V25.1z"/>
		<path class="st4" d="M134.4,27v-1.4h-0.3v-0.5h0.3v-0.7h0.6v0.7h0.7v0.5H135v1.3c0,0.2,0.1,0.3,0.3,0.3c0.1,0,0.2,0,0.4-0.1v0.5
			c-0.1,0.1-0.3,0.1-0.5,0.1C134.7,27.7,134.4,27.5,134.4,27z"/>
		<path class="st4" d="M139.3,27.7v-0.3c-0.2,0.2-0.4,0.4-0.8,0.4c-0.5,0-0.9-0.3-0.9-0.8v0c0-0.6,0.4-0.8,1-0.8
			c0.3,0,0.5,0,0.7,0.1v0c0-0.4-0.2-0.5-0.6-0.5c-0.3,0-0.5,0.1-0.7,0.2l-0.2-0.5c0.3-0.1,0.6-0.2,1-0.2c0.8,0,1.1,0.4,1.1,1.1v1.5
			H139.3z M139.3,26.6c-0.2-0.1-0.4-0.1-0.6-0.1c-0.4,0-0.6,0.2-0.6,0.4v0c0,0.2,0.2,0.4,0.5,0.4c0.4,0,0.7-0.2,0.7-0.5V26.6z"/>
		<path class="st4" d="M142.1,24.1h0.6v3.6h-0.6V24.1z"/>
	</g>
</g>
</svg>
